<svg width="166" height="161" viewBox="0 0 166 161" fill="none" xmlns="http://www.w3.org/2000/svg">
<g filter="url(#filter0_d_9_108)">
<g clip-path="url(#clip0_9_108)">
<rect x="53.3732" y="5" width="106" height="99" rx="9" transform="rotate(15 53.3732 5)" fill="white"/>
<path d="M60.9712 7.55352L147.905 30.8472C151.906 31.9193 154.28 36.0318 153.208 40.0328L131.726 120.205C130.654 124.206 126.541 126.58 122.54 125.508L35.607 102.214C31.606 101.142 29.2316 97.0297 30.3037 93.0287L51.7856 12.8568C52.8577 8.85582 56.9702 6.48145 60.9712 7.55352Z" stroke="#C4C8CF"/>
<path d="M31.3043 91.2262C30.7325 93.3601 31.9988 95.5534 34.1327 96.1252L126.862 120.972C128.995 121.544 131.189 120.277 131.761 118.143L131.243 120.075C130.242 123.81 126.404 126.026 122.67 125.025L35.7364 101.731C32.0021 100.731 29.786 96.8923 30.7866 93.1581L31.3043 91.2262Z" fill="#EAEDF6"/>
<rect x="56.9088" y="11.1237" width="96" height="84" rx="4" transform="rotate(15 56.9088 11.1237)" fill="url(#paint0_linear_9_108)" fill-opacity="0.5"/>
<path d="M127.17 74.8327L134.367 92.96L128.932 113.244C128.36 115.378 126.167 116.645 124.033 116.073L93.6065 107.92L100.077 83.7719L118.344 72.0031C121.52 69.9565 125.775 71.3206 127.17 74.8327Z" fill="url(#paint1_linear_9_108)" fill-opacity="0.5"/>
<path d="M83.4972 47.1751L39.2277 81.7759C38.2014 82.578 37.4641 83.6922 37.127 84.9503L36.2032 88.3978C35.6315 90.5317 36.8978 92.725 39.0317 93.2968L112.442 112.967L92.922 50.1227C91.6767 46.1135 86.8048 44.5899 83.4972 47.1751Z" fill="url(#paint2_linear_9_108)"/>
<g filter="url(#filter1_i_9_108)">
<circle cx="118.899" cy="46.3689" r="11" transform="rotate(15 118.899 46.3689)" fill="white"/>
</g>
<rect x="53.3732" y="5" width="106" height="99" transform="rotate(15 53.3732 5)" fill="white" fill-opacity="0.7"/>
</g>
</g>
<g filter="url(#filter2_d_9_108)">
<g clip-path="url(#clip1_9_108)">
<rect x="10" y="20.9833" width="106" height="99" rx="9" transform="rotate(-7.15156 10 20.9833)" fill="white"/>
<path d="M18 20.4835L107.3 9.27897C111.41 8.76329 115.16 11.677 115.675 15.7869L126.008 98.1412C126.524 102.251 123.61 106.001 119.5 106.517L30.2005 117.721C26.0906 118.237 22.3408 115.323 21.8251 111.213L11.4921 28.8588C10.9764 24.7489 13.8901 20.9991 18 20.4835Z" stroke="#C4C8CF"/>
<path d="M22.0722 109.166C22.3472 111.358 24.3471 112.912 26.5391 112.637L121.792 100.686C123.984 100.411 125.538 98.4109 125.263 96.219L125.512 98.2034C125.993 102.039 123.274 105.539 119.438 106.02L30.1382 117.225C26.3023 117.706 22.8025 114.987 22.3212 111.151L22.0722 109.166Z" fill="#EAEDF6"/>
<rect x="15.5836" y="25.3219" width="96" height="84" rx="4" transform="rotate(-7.15156 15.5836 25.3219)" fill="url(#paint3_linear_9_108)" fill-opacity="0.5"/>
<path d="M104.681 57.8361L118.182 71.9115L120.796 92.7481C121.071 94.9401 119.517 96.9399 117.325 97.215L86.0704 101.137L82.9581 76.331L95.4389 58.5433C97.6094 55.45 102.065 55.1091 104.681 57.8361Z" fill="url(#paint4_linear_9_108)" fill-opacity="0.5"/>
<path d="M53.8029 48.687L25.8475 97.4261C25.1994 98.5559 24.9366 99.8659 25.0988 101.158L25.5431 104.7C25.8181 106.892 27.818 108.445 30.01 108.17L105.419 98.7089L63.6435 47.8633C60.9784 44.6196 55.8917 45.0454 53.8029 48.687Z" fill="url(#paint5_linear_9_108)"/>
<g filter="url(#filter3_i_9_108)">
<circle cx="86.2876" cy="34.5918" r="11" transform="rotate(-7.15156 86.2876 34.5918)" fill="white"/>
</g>
<rect x="10" y="20.9833" width="106" height="99" transform="rotate(-7.15156 10 20.9833)" fill="white" fill-opacity="0.3"/>
</g>
</g>
<g filter="url(#filter4_d_9_108)">
<rect x="29.7501" y="34" width="106" height="99" rx="9" fill="white" shape-rendering="crispEdges"/>
<path d="M37.7501 34.5H127.75C131.892 34.5 135.25 37.8579 135.25 42V125C135.25 129.142 131.892 132.5 127.75 132.5H37.7501C33.608 132.5 30.2501 129.142 30.2501 125V42C30.2501 37.8579 33.608 34.5 37.7501 34.5Z" stroke="#C4C8CF"/>
<path d="M30.7501 123C30.7501 125.209 32.541 127 34.7501 127H130.75C132.959 127 134.75 125.209 134.75 123V125C134.75 128.866 131.616 132 127.75 132H37.7501C33.8841 132 30.7501 128.866 30.7501 125V123Z" fill="#EAEDF6"/>
<rect x="34.7501" y="39" width="96" height="84" rx="4" fill="url(#paint6_linear_9_108)" fill-opacity="0.5"/>
<path d="M119.106 82.3533L130.75 98V119C130.75 121.209 128.959 123 126.75 123H95.2501V98L109.848 81.9045C112.387 79.1054 116.85 79.3218 119.106 82.3533Z" fill="url(#paint7_linear_9_108)" fill-opacity="0.5"/>
<path d="M69.7633 66.9414L35.9576 111.821C35.174 112.861 34.7501 114.128 34.7501 115.431V119C34.7501 121.209 36.541 123 38.7501 123H114.75L79.6299 67.3492C77.3894 63.7989 72.2892 63.5881 69.7633 66.9414Z" fill="url(#paint8_linear_9_108)"/>
<g filter="url(#filter5_i_9_108)">
<circle cx="103.75" cy="57" r="11" fill="white"/>
</g>
</g>
<g filter="url(#filter6_d_9_108)">
<rect x="58.7501" y="101" width="47" height="47" rx="23.5" fill="white"/>
</g>
<path d="M90.7501 124.5L73.7501 124.5" stroke="#B6B7BF" stroke-width="3" stroke-linecap="round"/>
<path d="M82.2501 132.866L82.2501 115.866" stroke="#B6B7BF" stroke-width="3" stroke-linecap="round"/>
<defs>
<filter id="filter0_d_9_108" x="17.7501" y="0" width="148.011" height="143.061" filterUnits="userSpaceOnUse" color-interpolation-filters="sRGB">
<feFlood flood-opacity="0" result="BackgroundImageFix"/>
<feColorMatrix in="SourceAlpha" type="matrix" values="0 0 0 0 0 0 0 0 0 0 0 0 0 0 0 0 0 0 127 0" result="hardAlpha"/>
<feOffset dy="5"/>
<feGaussianBlur stdDeviation="5"/>
<feComposite in2="hardAlpha" operator="out"/>
<feColorMatrix type="matrix" values="0 0 0 0 0.0439049 0 0 0 0 0.0585286 0 0 0 0 0.0955182 0 0 0 0.2 0"/>
<feBlend mode="normal" in2="BackgroundImageFix" result="effect1_dropShadow_9_108"/>
<feBlend mode="normal" in="SourceGraphic" in2="effect1_dropShadow_9_108" result="shape"/>
</filter>
<filter id="filter1_i_9_108" x="107.896" y="31.3661" width="23.0054" height="26.0055" filterUnits="userSpaceOnUse" color-interpolation-filters="sRGB">
<feFlood flood-opacity="0" result="BackgroundImageFix"/>
<feBlend mode="normal" in="SourceGraphic" in2="BackgroundImageFix" result="shape"/>
<feColorMatrix in="SourceAlpha" type="matrix" values="0 0 0 0 0 0 0 0 0 0 0 0 0 0 0 0 0 0 127 0" result="hardAlpha"/>
<feOffset dx="1" dy="-4"/>
<feGaussianBlur stdDeviation="2"/>
<feComposite in2="hardAlpha" operator="arithmetic" k2="-1" k3="1"/>
<feColorMatrix type="matrix" values="0 0 0 0 0.685337 0 0 0 0 0.716803 0 0 0 0 0.921334 0 0 0 0.1 0"/>
<feBlend mode="normal" in2="shape" result="effect1_innerShadow_9_108"/>
</filter>
<filter id="filter2_d_9_108" x="0" y="2.7869" width="137.5" height="131.426" filterUnits="userSpaceOnUse" color-interpolation-filters="sRGB">
<feFlood flood-opacity="0" result="BackgroundImageFix"/>
<feColorMatrix in="SourceAlpha" type="matrix" values="0 0 0 0 0 0 0 0 0 0 0 0 0 0 0 0 0 0 127 0" result="hardAlpha"/>
<feOffset dy="5"/>
<feGaussianBlur stdDeviation="5"/>
<feComposite in2="hardAlpha" operator="out"/>
<feColorMatrix type="matrix" values="0 0 0 0 0.0439049 0 0 0 0 0.0585286 0 0 0 0 0.0955182 0 0 0 0.2 0"/>
<feBlend mode="normal" in2="BackgroundImageFix" result="effect1_dropShadow_9_108"/>
<feBlend mode="normal" in="SourceGraphic" in2="effect1_dropShadow_9_108" result="shape"/>
</filter>
<filter id="filter3_i_9_108" x="75.2865" y="19.5906" width="23.0023" height="26.0023" filterUnits="userSpaceOnUse" color-interpolation-filters="sRGB">
<feFlood flood-opacity="0" result="BackgroundImageFix"/>
<feBlend mode="normal" in="SourceGraphic" in2="BackgroundImageFix" result="shape"/>
<feColorMatrix in="SourceAlpha" type="matrix" values="0 0 0 0 0 0 0 0 0 0 0 0 0 0 0 0 0 0 127 0" result="hardAlpha"/>
<feOffset dx="1" dy="-4"/>
<feGaussianBlur stdDeviation="2"/>
<feComposite in2="hardAlpha" operator="arithmetic" k2="-1" k3="1"/>
<feColorMatrix type="matrix" values="0 0 0 0 0.685337 0 0 0 0 0.716803 0 0 0 0 0.921334 0 0 0 0.1 0"/>
<feBlend mode="normal" in2="shape" result="effect1_innerShadow_9_108"/>
</filter>
<filter id="filter4_d_9_108" x="19.7501" y="29" width="126" height="119" filterUnits="userSpaceOnUse" color-interpolation-filters="sRGB">
<feFlood flood-opacity="0" result="BackgroundImageFix"/>
<feColorMatrix in="SourceAlpha" type="matrix" values="0 0 0 0 0 0 0 0 0 0 0 0 0 0 0 0 0 0 127 0" result="hardAlpha"/>
<feOffset dy="5"/>
<feGaussianBlur stdDeviation="5"/>
<feComposite in2="hardAlpha" operator="out"/>
<feColorMatrix type="matrix" values="0 0 0 0 0.0439049 0 0 0 0 0.0585286 0 0 0 0 0.0955182 0 0 0 0.2 0"/>
<feBlend mode="normal" in2="BackgroundImageFix" result="effect1_dropShadow_9_108"/>
<feBlend mode="normal" in="SourceGraphic" in2="effect1_dropShadow_9_108" result="shape"/>
</filter>
<filter id="filter5_i_9_108" x="92.7501" y="42" width="23" height="26" filterUnits="userSpaceOnUse" color-interpolation-filters="sRGB">
<feFlood flood-opacity="0" result="BackgroundImageFix"/>
<feBlend mode="normal" in="SourceGraphic" in2="BackgroundImageFix" result="shape"/>
<feColorMatrix in="SourceAlpha" type="matrix" values="0 0 0 0 0 0 0 0 0 0 0 0 0 0 0 0 0 0 127 0" result="hardAlpha"/>
<feOffset dx="1" dy="-4"/>
<feGaussianBlur stdDeviation="2"/>
<feComposite in2="hardAlpha" operator="arithmetic" k2="-1" k3="1"/>
<feColorMatrix type="matrix" values="0 0 0 0 0.685337 0 0 0 0 0.716803 0 0 0 0 0.921334 0 0 0 0.1 0"/>
<feBlend mode="normal" in2="shape" result="effect1_innerShadow_9_108"/>
</filter>
<filter id="filter6_d_9_108" x="44.7501" y="86" width="75" height="75" filterUnits="userSpaceOnUse" color-interpolation-filters="sRGB">
<feFlood flood-opacity="0" result="BackgroundImageFix"/>
<feColorMatrix in="SourceAlpha" type="matrix" values="0 0 0 0 0 0 0 0 0 0 0 0 0 0 0 0 0 0 127 0" result="hardAlpha"/>
<feOffset dy="-1"/>
<feGaussianBlur stdDeviation="7"/>
<feComposite in2="hardAlpha" operator="out"/>
<feColorMatrix type="matrix" values="0 0 0 0 0.0644358 0 0 0 0 0.0850734 0 0 0 0 0.219218 0 0 0 0.2 0"/>
<feBlend mode="normal" in2="BackgroundImageFix" result="effect1_dropShadow_9_108"/>
<feBlend mode="normal" in="SourceGraphic" in2="effect1_dropShadow_9_108" result="shape"/>
</filter>
<linearGradient id="paint0_linear_9_108" x1="104.909" y1="11.1237" x2="104.909" y2="95.1237" gradientUnits="userSpaceOnUse">
<stop stop-color="#9EA0AE"/>
<stop offset="1" stop-color="#646778"/>
</linearGradient>
<linearGradient id="paint1_linear_9_108" x1="122.787" y1="67.5985" x2="110.752" y2="112.514" gradientUnits="userSpaceOnUse">
<stop stop-color="#E5E8ED"/>
<stop offset="1" stop-color="#CCD0D6"/>
</linearGradient>
<linearGradient id="paint2_linear_9_108" x1="110.869" y1="55.0876" x2="60.3768" y2="100.569" gradientUnits="userSpaceOnUse">
<stop stop-color="#E9ECF1"/>
<stop offset="1" stop-color="#CDD0D6"/>
</linearGradient>
<linearGradient id="paint3_linear_9_108" x1="63.5836" y1="25.3219" x2="63.5836" y2="109.322" gradientUnits="userSpaceOnUse">
<stop stop-color="#9EA0AE"/>
<stop offset="1" stop-color="#646778"/>
</linearGradient>
<linearGradient id="paint4_linear_9_108" x1="97.8933" y1="52.7885" x2="103.682" y2="98.9268" gradientUnits="userSpaceOnUse">
<stop stop-color="#E5E8ED"/>
<stop offset="1" stop-color="#CCD0D6"/>
</linearGradient>
<linearGradient id="paint5_linear_9_108" x1="82.1376" y1="45.6948" x2="52.5217" y2="106.858" gradientUnits="userSpaceOnUse">
<stop stop-color="#E9ECF1"/>
<stop offset="1" stop-color="#CDD0D6"/>
</linearGradient>
<linearGradient id="paint6_linear_9_108" x1="82.7501" y1="39" x2="82.7501" y2="123" gradientUnits="userSpaceOnUse">
<stop stop-color="#9EA0AE"/>
<stop offset="1" stop-color="#646778"/>
</linearGradient>
<linearGradient id="paint7_linear_9_108" x1="113" y1="76.5" x2="113" y2="123" gradientUnits="userSpaceOnUse">
<stop stop-color="#E5E8ED"/>
<stop offset="1" stop-color="#CCD0D6"/>
</linearGradient>
<linearGradient id="paint8_linear_9_108" x1="98.2501" y1="67.5" x2="61.2501" y2="124.5" gradientUnits="userSpaceOnUse">
<stop stop-color="#E9ECF1"/>
<stop offset="1" stop-color="#CDD0D6"/>
</linearGradient>
<clipPath id="clip0_9_108">
<rect x="53.3732" y="5" width="106" height="99" rx="9" transform="rotate(15 53.3732 5)" fill="white"/>
</clipPath>
<clipPath id="clip1_9_108">
<rect x="10" y="20.9833" width="106" height="99" rx="9" transform="rotate(-7.15156 10 20.9833)" fill="white"/>
</clipPath>
</defs>
</svg>
