<svg width="52" height="52" viewBox="0 0 52 52" fill="none" xmlns="http://www.w3.org/2000/svg">
<path d="M23.5 7.5C23.5 9.70914 21.7091 11.5 19.5 11.5C17.2909 11.5 15.5 9.70914 15.5 7.5C15.5 5.29086 17.2909 3.5 19.5 3.5C21.7091 3.5 23.5 5.29086 23.5 7.5Z" fill="black"/>
<path d="M7.5 28.5C9.70914 28.5 11.5 30.2909 11.5 32.5C11.5 34.7091 9.70914 36.5 7.5 36.5C5.29086 36.5 3.5 34.7091 3.5 32.5C3.5 30.2909 5.29086 28.5 7.5 28.5Z" fill="black"/>
<path d="M28.5 44.5C28.5 42.2909 30.2909 40.5 32.5 40.5C34.7091 40.5 36.5 42.2909 36.5 44.5C36.5 46.7091 34.7091 48.5 32.5 48.5C30.2909 48.5 28.5 46.7091 28.5 44.5Z" fill="black"/>
<path d="M44.5 23.5C42.2909 23.5 40.5 21.7091 40.5 19.5C40.5 17.2909 42.2909 15.5 44.5 15.5C46.7091 15.5 48.5 17.2909 48.5 19.5C48.5 21.7091 46.7091 23.5 44.5 23.5Z" fill="black"/>
<path d="M11.5 11C11.5 12.6569 10.1569 14 8.5 14C6.84315 14 5.5 12.6569 5.5 11C5.5 9.34315 6.84315 8 8.5 8C10.1569 8 11.5 9.34315 11.5 11Z" fill="black"/>
<path d="M11 40.5C12.6569 40.5 14 41.8431 14 43.5C14 45.1569 12.6569 46.5 11 46.5C9.34315 46.5 8 45.1569 8 43.5C8 41.8431 9.34315 40.5 11 40.5Z" fill="black"/>
<path d="M40.5 41C40.5 39.3431 41.8431 38 43.5 38C45.1569 38 46.5 39.3431 46.5 41C46.5 42.6569 45.1569 44 43.5 44C41.8431 44 40.5 42.6569 40.5 41Z" fill="black"/>
<path d="M41 11.5C39.3431 11.5 38 10.1569 38 8.5C38 6.84314 39.3431 5.5 41 5.5C42.6569 5.5 44 6.84314 44 8.5C44 10.1569 42.6569 11.5 41 11.5Z" fill="black"/>
<path d="M33.5 11C33.5 12.6569 32.1569 14 30.5 14C28.8431 14 27.5 12.6569 27.5 11C27.5 9.34315 28.8431 8 30.5 8C32.1569 8 33.5 9.34315 33.5 11Z" fill="black"/>
<path d="M11 18.5C12.6569 18.5 14 19.8431 14 21.5C14 23.1569 12.6569 24.5 11 24.5C9.34315 24.5 8 23.1569 8 21.5C8 19.8431 9.34315 18.5 11 18.5Z" fill="black"/>
<path d="M18.5 41C18.5 39.3431 19.8431 38 21.5 38C23.1569 38 24.5 39.3431 24.5 41C24.5 42.6569 23.1569 44 21.5 44C19.8431 44 18.5 42.6569 18.5 41Z" fill="black"/>
<path d="M41 33.5C39.3431 33.5 38 32.1569 38 30.5C38 28.8431 39.3431 27.5 41 27.5C42.6569 27.5 44 28.8431 44 30.5C44 32.1569 42.6569 33.5 41 33.5Z" fill="black"/>
<path d="M38 18C38 19.1046 37.1046 20 36 20C34.8954 20 34 19.1046 34 18C34 16.8954 34.8954 16 36 16C37.1046 16 38 16.8954 38 18Z" fill="black"/>
<path d="M18 14C19.1046 14 20 14.8954 20 16C20 17.1046 19.1046 18 18 18C16.8954 18 16 17.1046 16 16C16 14.8954 16.8954 14 18 14Z" fill="black"/>
<path d="M14 34C14 32.8954 14.8954 32 16 32C17.1046 32 18 32.8954 18 34C18 35.1046 17.1046 36 16 36C14.8954 36 14 35.1046 14 34Z" fill="black"/>
<path d="M34 38C32.8954 38 32 37.1046 32 36C32 34.8954 32.8954 34 34 34C35.1046 34 36 34.8954 36 36C36 37.1046 35.1046 38 34 38Z" fill="black"/>
<path d="M5 18C5 19.1046 4.10457 20 3 20C1.89543 20 1 19.1046 1 18C1 16.8954 1.89543 16 3 16C4.10457 16 5 16.8954 5 18Z" fill="black"/>
<path d="M18 47C19.1046 47 20 47.8954 20 49C20 50.1046 19.1046 51 18 51C16.8954 51 16 50.1046 16 49C16 47.8954 16.8954 47 18 47Z" fill="black"/>
<path d="M47 34C47 32.8954 47.8954 32 49 32C50.1046 32 51 32.8954 51 34C51 35.1046 50.1046 36 49 36C47.8954 36 47 35.1046 47 34Z" fill="black"/>
<path d="M34 5C32.8954 5 32 4.10457 32 3C32 1.89543 32.8954 0.999999 34 0.999998C35.1046 0.999998 36 1.89543 36 3C36 4.10457 35.1046 5 34 5Z" fill="black"/>
</svg>
