<svg width="96" height="237" viewBox="0 0 96 237" fill="none" xmlns="http://www.w3.org/2000/svg">
<path d="M5 53.5657C5 48.1177 8.81418 41.558 13.5782 38.8126L71.8016 5.26009C76.6968 2.43911 80.7158 4.71904 80.7158 10.317V183.067C80.7158 188.515 76.9016 195.075 72.1375 197.82L13.9142 231.373C9.01894 234.194 5 231.914 5 226.316V53.5657Z" fill="#0A0B0C"/>
<path d="M20.7462 39.9079L81.9696 5.97121C86.3169 3.56143 89.8412 5.63736 89.8412 10.6079V183.362C89.8411 188.332 86.3169 194.315 81.9696 196.725L20.7462 230.662C16.3989 233.072 12.8747 230.996 12.8746 226.025V53.2712C12.8746 48.3006 16.3988 42.3177 20.7462 39.9079Z" fill="white" stroke="#0A0B0C" stroke-width="2"/>
<path d="M76 4L86 3.87109V6H82.5L76.5 8L76 4Z" fill="#0A0B0C"/>
<path d="M17 232.785L10.5 232.5L12 228.5L17 231V232.785Z" fill="#0A0B0C"/>
<ellipse cx="3.68012" cy="4" rx="3.68012" ry="4" transform="matrix(0.951057 -0.309017 0 1 50 34.4721)" fill="#0A0B0C"/>
<path d="M50.7978 97.2469C50.7978 99.0603 49.4655 101.152 47.822 101.918C46.1785 102.684 44.8462 101.836 44.8462 100.022C44.8462 98.2088 46.1785 96.1175 47.822 95.3511C49.4655 94.5847 50.7978 95.4335 50.7978 97.2469Z" fill="#0A0B0C"/>
<path d="M38.8947 120.035C40.5381 119.269 41.8704 120.118 41.8704 121.931C41.8704 123.745 40.5381 125.836 38.8947 126.602C37.2512 127.369 35.9189 126.52 35.9189 124.706C35.9189 122.893 37.2512 120.802 38.8947 120.035Z" fill="#0A0B0C"/>
<path d="M54.5176 125.884C54.5176 124.071 55.8499 121.979 57.4934 121.213C59.1368 120.447 60.4691 121.295 60.4691 123.109C60.4691 124.922 59.1368 127.013 57.4934 127.78C55.8499 128.546 54.5176 127.697 54.5176 125.884Z" fill="#0A0B0C"/>
<path d="M66.4207 103.096C64.7772 103.862 63.4449 103.013 63.4449 101.2C63.4449 99.3863 64.7772 97.295 66.4207 96.5287C68.0642 95.7623 69.3965 96.6111 69.3965 98.4244C69.3965 100.238 68.0642 102.329 66.4207 103.096Z" fill="#0A0B0C"/>
<path d="M41.8704 104.283C41.8704 105.643 40.8712 107.211 39.6386 107.786C38.406 108.361 37.4068 107.724 37.4068 106.364C37.4068 105.004 38.406 103.436 39.6386 102.861C40.8712 102.286 41.8704 102.923 41.8704 104.283Z" fill="#0A0B0C"/>
<path d="M41.4985 128.671C42.7311 128.097 43.7303 128.733 43.7303 130.093C43.7303 131.453 42.7311 133.022 41.4985 133.597C40.2659 134.171 39.2666 133.535 39.2666 132.175C39.2666 130.815 40.2659 129.246 41.4985 128.671Z" fill="#0A0B0C"/>
<path d="M63.4449 118.848C63.4449 117.488 64.4442 115.92 65.6768 115.345C66.9094 114.77 67.9086 115.407 67.9086 116.767C67.9086 118.127 66.9094 119.695 65.6768 120.27C64.4442 120.845 63.4449 120.208 63.4449 118.848Z" fill="#0A0B0C"/>
<path d="M63.8169 94.4594C62.5843 95.0342 61.5851 94.3976 61.5851 93.0376C61.5851 91.6775 62.5843 90.109 63.8169 89.5343C65.0495 88.9595 66.0488 89.5961 66.0488 90.9561C66.0488 92.3162 65.0495 93.8846 63.8169 94.4594Z" fill="#0A0B0C"/>
<path d="M58.2373 96.6508C58.2373 98.0108 57.2381 99.5793 56.0055 100.154C54.7728 100.729 53.7736 100.092 53.7736 98.7323C53.7736 97.3722 54.7728 95.8037 56.0055 95.229C57.2381 94.6542 58.2373 95.2908 58.2373 96.6508Z" fill="#0A0B0C"/>
<path d="M41.4985 110.613C42.7311 110.038 43.7303 110.674 43.7303 112.035C43.7303 113.395 42.7311 114.963 41.4985 115.538C40.2659 116.113 39.2666 115.476 39.2666 114.116C39.2666 112.756 40.2659 111.187 41.4985 110.613Z" fill="#0A0B0C"/>
<path d="M47.0781 126.48C47.0781 125.12 48.0773 123.552 49.3099 122.977C50.5425 122.402 51.5418 123.039 51.5418 124.399C51.5418 125.759 50.5425 127.327 49.3099 127.902C48.0773 128.477 47.0781 127.84 47.0781 126.48Z" fill="#0A0B0C"/>
<path d="M63.8169 112.518C62.5843 113.093 61.5851 112.456 61.5851 111.096C61.5851 109.736 62.5843 108.168 63.8169 107.593C65.0495 107.018 66.0488 107.655 66.0488 109.015C66.0488 110.375 65.0495 111.943 63.8169 112.518Z" fill="#0A0B0C"/>
<path d="M61.5851 100.836C61.5851 101.742 60.9189 102.788 60.0972 103.171C59.2754 103.554 58.6093 103.13 58.6093 102.223C58.6093 101.317 59.2754 100.271 60.0972 99.8878C60.9189 99.5046 61.5851 99.929 61.5851 100.836Z" fill="#0A0B0C"/>
<path d="M46.7061 104.49C47.5278 104.107 48.194 104.532 48.194 105.438C48.194 106.345 47.5278 107.391 46.7061 107.774C45.8844 108.157 45.2182 107.733 45.2182 106.826C45.2182 105.919 45.8844 104.874 46.7061 104.49Z" fill="#0A0B0C"/>
<path d="M43.7303 122.295C43.7303 121.389 44.3965 120.343 45.2182 119.96C46.04 119.576 46.7061 120.001 46.7061 120.908C46.7061 121.814 46.04 122.86 45.2182 123.243C44.3965 123.626 43.7303 123.202 43.7303 122.295Z" fill="#0A0B0C"/>
<path d="M58.6093 118.64C57.7875 119.024 57.1214 118.599 57.1214 117.693C57.1214 116.786 57.7875 115.74 58.6093 115.357C59.431 114.974 60.0972 115.398 60.0972 116.305C60.0972 117.212 59.431 118.257 58.6093 118.64Z" fill="#0A0B0C"/>
<path d="M37.0348 112.284C37.0348 113.19 36.3686 114.236 35.5469 114.619C34.7251 115.002 34.059 114.578 34.059 113.671C34.059 112.765 34.7251 111.719 35.5469 111.336C36.3686 110.953 37.0348 111.377 37.0348 112.284Z" fill="#0A0B0C"/>
<path d="M46.7061 131.579C47.5278 131.195 48.194 131.62 48.194 132.527C48.194 133.433 47.5278 134.479 46.7061 134.862C45.8844 135.245 45.2182 134.821 45.2182 133.914C45.2182 133.008 45.8844 131.962 46.7061 131.579Z" fill="#0A0B0C"/>
<path d="M68.2806 110.847C68.2806 109.941 68.9468 108.895 69.7685 108.512C70.5902 108.128 71.2564 108.553 71.2564 109.46C71.2564 110.366 70.5902 111.412 69.7685 111.795C68.9468 112.178 68.2806 111.754 68.2806 110.847Z" fill="#0A0B0C"/>
<path d="M58.6093 91.5522C57.7875 91.9354 57.1214 91.511 57.1214 90.6043C57.1214 89.6976 57.7875 88.652 58.6093 88.2688C59.431 87.8856 60.0972 88.31 60.0972 89.2167C60.0972 90.1234 59.431 91.169 58.6093 91.5522Z" fill="#0A0B0C"/>
<path d="M38.4471 163.998L37.0987 158.083L38.8856 157.263L39.5762 161.732L40.4313 156.587L42.3388 155.738L43.2048 160.128L43.9174 155.023L45.6823 154.261L44.2682 161.407L42.2072 162.324L41.3631 158.38L40.5519 163.061L38.4471 163.998ZM45.903 157.403C45.903 156.875 45.9505 156.381 46.0456 155.923C46.1406 155.465 46.2977 155.043 46.5169 154.657C46.7362 154.264 47.0322 153.908 47.4049 153.59C47.7776 153.272 48.2417 152.989 48.7972 152.742C49.3526 152.495 49.8167 152.364 50.1894 152.35C50.5621 152.336 50.8581 152.428 51.0774 152.627C51.2966 152.817 51.4537 153.099 51.5488 153.473C51.6438 153.847 51.6913 154.298 51.6913 154.826C51.6913 155.362 51.6401 155.864 51.5378 156.334C51.4355 156.803 51.271 157.233 51.0445 157.622C50.8179 158.01 50.5183 158.364 50.1455 158.682C49.7801 158.996 49.3307 159.273 48.7972 159.51C48.2636 159.748 47.8105 159.873 47.4378 159.887C47.0724 159.898 46.7764 159.81 46.5498 159.623C46.3233 159.436 46.1588 159.153 46.0565 158.774C45.9542 158.396 45.903 157.939 45.903 157.403ZM47.7557 156.578C47.7557 157.058 47.7886 157.423 47.8544 157.674C47.9275 157.921 48.0407 158.071 48.1942 158.123C48.3477 158.166 48.5487 158.133 48.7972 158.022C49.0529 157.908 49.2539 157.763 49.4001 157.586C49.5536 157.397 49.6669 157.147 49.7399 156.834C49.813 156.522 49.8496 156.126 49.8496 155.646C49.8496 155.166 49.8167 154.804 49.7509 154.561C49.6851 154.319 49.5755 154.176 49.422 154.132C49.2685 154.08 49.0603 154.113 48.7972 154.23C48.5341 154.347 48.3258 154.5 48.1723 154.688C48.0261 154.865 47.9202 155.105 47.8544 155.406C47.7886 155.707 47.7557 156.098 47.7557 156.578ZM54.1039 150.499V151.255C54.3085 150.956 54.4949 150.705 54.663 150.502C54.8311 150.3 55.0028 150.131 55.1782 149.997C55.3536 149.855 55.5473 149.737 55.7592 149.642C55.8762 149.59 56.0004 149.547 56.132 149.512C56.2635 149.47 56.3951 149.443 56.5266 149.433L56.2416 151.336C56.11 151.362 55.9785 151.397 55.8469 151.439C55.7154 151.474 55.5948 151.516 55.4852 151.564C55.2951 151.649 55.1015 151.771 54.9041 151.931C54.7068 152.083 54.4949 152.297 54.2683 152.574V156.954L52.4814 157.75V151.222L54.1039 150.499ZM62.0511 153.597C61.9196 153.656 61.7917 153.697 61.6674 153.72C61.5432 153.751 61.408 153.759 61.2618 153.744C61.123 153.726 60.9622 153.682 60.7795 153.611C60.6041 153.529 60.3994 153.416 60.1656 153.273L58.7843 152.472V154.944L57.0741 155.705V146.825L58.7843 146.064V150.024L60.5273 151.059C60.8635 151.262 61.1376 151.408 61.3495 151.497C61.5688 151.584 61.7478 151.628 61.8867 151.63C62.0255 151.624 62.1608 151.592 62.2923 151.534C62.3142 151.524 62.3398 151.513 62.369 151.499C62.3983 151.478 62.4312 151.46 62.4677 151.444L62.4787 153.371C62.4202 153.405 62.3544 153.442 62.2813 153.483C62.2156 153.52 62.1388 153.558 62.0511 153.597ZM60.045 151.55L58.5979 151.438C58.861 151.065 59.0985 150.708 59.3105 150.365C59.5297 150.02 59.7198 149.691 59.8805 149.379C60.0486 149.065 60.1875 148.755 60.2971 148.45C60.4141 148.142 60.5054 147.829 60.5712 147.512L62.391 146.81C62.3106 147.19 62.1863 147.585 62.0182 147.996C61.8501 148.407 61.6528 148.822 61.4263 149.243C61.207 149.661 60.9768 150.067 60.7356 150.463C60.4944 150.85 60.2642 151.213 60.045 151.55ZM64.3623 154.968L65.0968 152.133L64.8557 152.24L62.6631 146.701L64.6254 145.791L65.8861 150.198L67.0811 144.698L68.9556 143.887L66.2479 154.153L64.3623 154.968Z" fill="#0A0B0C"/>
</svg>
