<svg width="102" height="243" viewBox="0 0 102 243" fill="none" xmlns="http://www.w3.org/2000/svg">
<path d="M8 56.5657C8 51.1177 11.8142 44.558 16.5782 41.8126L74.8016 8.26009C79.6968 5.43911 83.7158 7.71904 83.7158 13.317V186.067C83.7158 191.515 79.9016 198.075 75.1375 200.82L16.9142 234.373C12.0189 237.194 8 234.914 8 229.316V56.5657Z" fill="white"/>
<path d="M23.7462 42.9079L84.9696 8.9712C89.3169 6.56143 92.8412 8.63735 92.8412 13.6079V186.362C92.8411 191.332 89.3169 197.315 84.9696 199.725L23.7462 233.662C19.3989 236.072 15.8747 233.996 15.8746 229.025V56.2712C15.8746 51.3006 19.3988 45.3177 23.7462 42.9079Z" fill="#0A0B0C" stroke="white" stroke-width="2"/>
<path d="M79 7L89 6.87109V9H85.5L79.5 11L79 7Z" fill="white"/>
<path d="M20 235.785L13.5 235.5L15 231.5L20 234V235.785Z" fill="white"/>
<ellipse cx="3.68012" cy="4" rx="3.68012" ry="4" transform="matrix(0.951057 -0.309017 0 1 53 37.4721)" fill="white"/>
<path d="M53.7978 100.247C53.7978 102.06 52.4655 104.152 50.822 104.918C49.1785 105.684 47.8462 104.836 47.8462 103.022C47.8462 101.209 49.1785 99.1175 50.822 98.3511C52.4655 97.5847 53.7978 98.4335 53.7978 100.247Z" fill="white"/>
<path d="M41.8947 123.035C43.5381 122.269 44.8704 123.118 44.8704 124.931C44.8704 126.745 43.5381 128.836 41.8947 129.602C40.2512 130.369 38.9189 129.52 38.9189 127.706C38.9189 125.893 40.2512 123.802 41.8947 123.035Z" fill="white"/>
<path d="M57.5176 128.884C57.5176 127.071 58.8499 124.979 60.4934 124.213C62.1368 123.447 63.4691 124.295 63.4691 126.109C63.4691 127.922 62.1368 130.013 60.4934 130.78C58.8499 131.546 57.5176 130.697 57.5176 128.884Z" fill="white"/>
<path d="M69.4207 106.096C67.7772 106.862 66.4449 106.013 66.4449 104.2C66.4449 102.386 67.7772 100.295 69.4207 99.5287C71.0642 98.7623 72.3965 99.6111 72.3965 101.424C72.3965 103.238 71.0642 105.329 69.4207 106.096Z" fill="white"/>
<path d="M44.8704 107.283C44.8704 108.643 43.8712 110.211 42.6386 110.786C41.406 111.361 40.4068 110.724 40.4068 109.364C40.4068 108.004 41.406 106.436 42.6386 105.861C43.8712 105.286 44.8704 105.923 44.8704 107.283Z" fill="white"/>
<path d="M44.4985 131.671C45.7311 131.097 46.7303 131.733 46.7303 133.093C46.7303 134.453 45.7311 136.022 44.4985 136.597C43.2659 137.171 42.2666 136.535 42.2666 135.175C42.2666 133.815 43.2659 132.246 44.4985 131.671Z" fill="white"/>
<path d="M66.4449 121.848C66.4449 120.488 67.4442 118.92 68.6768 118.345C69.9094 117.77 70.9086 118.407 70.9086 119.767C70.9086 121.127 69.9094 122.695 68.6768 123.27C67.4442 123.845 66.4449 123.208 66.4449 121.848Z" fill="white"/>
<path d="M66.8169 97.4594C65.5843 98.0342 64.5851 97.3976 64.5851 96.0376C64.5851 94.6775 65.5843 93.1091 66.8169 92.5343C68.0495 91.9595 69.0488 92.5961 69.0488 93.9561C69.0488 95.3162 68.0495 96.8846 66.8169 97.4594Z" fill="white"/>
<path d="M61.2373 99.6508C61.2373 101.011 60.2381 102.579 59.0055 103.154C57.7728 103.729 56.7736 103.092 56.7736 101.732C56.7736 100.372 57.7728 98.8037 59.0055 98.229C60.2381 97.6542 61.2373 98.2908 61.2373 99.6508Z" fill="white"/>
<path d="M44.4985 113.613C45.7311 113.038 46.7303 113.674 46.7303 115.035C46.7303 116.395 45.7311 117.963 44.4985 118.538C43.2659 119.113 42.2666 118.476 42.2666 117.116C42.2666 115.756 43.2659 114.187 44.4985 113.613Z" fill="white"/>
<path d="M50.0781 129.48C50.0781 128.12 51.0773 126.552 52.3099 125.977C53.5425 125.402 54.5418 126.039 54.5418 127.399C54.5418 128.759 53.5425 130.327 52.3099 130.902C51.0773 131.477 50.0781 130.84 50.0781 129.48Z" fill="white"/>
<path d="M66.8169 115.518C65.5843 116.093 64.5851 115.456 64.5851 114.096C64.5851 112.736 65.5843 111.168 66.8169 110.593C68.0495 110.018 69.0488 110.655 69.0488 112.015C69.0488 113.375 68.0495 114.943 66.8169 115.518Z" fill="white"/>
<path d="M64.5851 103.836C64.5851 104.742 63.9189 105.788 63.0972 106.171C62.2754 106.554 61.6093 106.13 61.6093 105.223C61.6093 104.317 62.2754 103.271 63.0972 102.888C63.9189 102.505 64.5851 102.929 64.5851 103.836Z" fill="white"/>
<path d="M49.7061 107.49C50.5279 107.107 51.194 107.532 51.194 108.438C51.194 109.345 50.5279 110.391 49.7061 110.774C48.8844 111.157 48.2182 110.733 48.2182 109.826C48.2182 108.919 48.8844 107.874 49.7061 107.49Z" fill="white"/>
<path d="M46.7303 125.295C46.7303 124.389 47.3965 123.343 48.2182 122.96C49.04 122.576 49.7061 123.001 49.7061 123.908C49.7061 124.814 49.04 125.86 48.2182 126.243C47.3965 126.626 46.7303 126.202 46.7303 125.295Z" fill="white"/>
<path d="M61.6093 121.64C60.7875 122.024 60.1214 121.599 60.1214 120.693C60.1214 119.786 60.7875 118.74 61.6093 118.357C62.431 117.974 63.0972 118.398 63.0972 119.305C63.0972 120.212 62.431 121.257 61.6093 121.64Z" fill="white"/>
<path d="M40.0348 115.284C40.0348 116.19 39.3686 117.236 38.5469 117.619C37.7251 118.002 37.059 117.578 37.059 116.671C37.059 115.765 37.7251 114.719 38.5469 114.336C39.3686 113.953 40.0348 114.377 40.0348 115.284Z" fill="white"/>
<path d="M49.7061 134.579C50.5279 134.196 51.194 134.62 51.194 135.527C51.194 136.433 50.5279 137.479 49.7061 137.862C48.8844 138.245 48.2182 137.821 48.2182 136.914C48.2182 136.008 48.8844 134.962 49.7061 134.579Z" fill="white"/>
<path d="M71.2806 113.847C71.2806 112.941 71.9468 111.895 72.7685 111.512C73.5902 111.129 74.2564 111.553 74.2564 112.46C74.2564 113.366 73.5902 114.412 72.7685 114.795C71.9468 115.178 71.2806 114.754 71.2806 113.847Z" fill="white"/>
<path d="M61.6093 94.5522C60.7875 94.9354 60.1214 94.511 60.1214 93.6043C60.1214 92.6976 60.7875 91.652 61.6093 91.2688C62.431 90.8856 63.0972 91.31 63.0972 92.2167C63.0972 93.1234 62.431 94.169 61.6093 94.5522Z" fill="white"/>
<path d="M41.4471 166.998L40.0987 161.083L41.8856 160.263L42.5762 164.732L43.4313 159.587L45.3388 158.738L46.2048 163.128L46.9174 158.023L48.6823 157.261L47.2682 164.407L45.2072 165.324L44.3631 161.38L43.5519 166.061L41.4471 166.998ZM48.903 160.403C48.903 159.875 48.9505 159.381 49.0456 158.923C49.1406 158.465 49.2977 158.043 49.5169 157.657C49.7362 157.264 50.0322 156.908 50.4049 156.59C50.7776 156.272 51.2417 155.989 51.7972 155.742C52.3526 155.495 52.8167 155.364 53.1894 155.35C53.5621 155.336 53.8581 155.428 54.0774 155.627C54.2966 155.817 54.4537 156.099 54.5488 156.473C54.6438 156.847 54.6913 157.298 54.6913 157.826C54.6913 158.362 54.6401 158.864 54.5378 159.334C54.4355 159.803 54.271 160.233 54.0445 160.622C53.8179 161.01 53.5183 161.364 53.1455 161.682C52.7801 161.996 52.3307 162.273 51.7972 162.51C51.2636 162.748 50.8105 162.873 50.4378 162.887C50.0724 162.898 49.7764 162.81 49.5498 162.623C49.3233 162.436 49.1588 162.153 49.0565 161.774C48.9542 161.396 48.903 160.939 48.903 160.403ZM50.7557 159.578C50.7557 160.058 50.7886 160.423 50.8544 160.674C50.9275 160.921 51.0407 161.071 51.1942 161.123C51.3477 161.166 51.5487 161.133 51.7972 161.022C52.0529 160.908 52.2539 160.763 52.4001 160.586C52.5536 160.397 52.6669 160.147 52.7399 159.834C52.813 159.522 52.8496 159.126 52.8496 158.646C52.8496 158.166 52.8167 157.804 52.7509 157.561C52.6851 157.319 52.5755 157.176 52.422 157.132C52.2685 157.08 52.0603 157.113 51.7972 157.23C51.5341 157.347 51.3258 157.5 51.1723 157.688C51.0261 157.865 50.9202 158.105 50.8544 158.406C50.7886 158.707 50.7557 159.098 50.7557 159.578ZM57.1039 153.499V154.255C57.3085 153.956 57.4949 153.705 57.663 153.502C57.8311 153.3 58.0028 153.131 58.1782 152.997C58.3536 152.855 58.5473 152.737 58.7592 152.642C58.8762 152.59 59.0004 152.547 59.132 152.512C59.2635 152.47 59.3951 152.443 59.5266 152.433L59.2416 154.336C59.11 154.362 58.9785 154.397 58.8469 154.439C58.7154 154.474 58.5948 154.516 58.4852 154.564C58.2951 154.649 58.1015 154.771 57.9041 154.931C57.7068 155.083 57.4949 155.297 57.2683 155.574V159.954L55.4814 160.75V154.222L57.1039 153.499ZM65.0511 156.597C64.9196 156.656 64.7917 156.697 64.6674 156.72C64.5432 156.751 64.408 156.759 64.2618 156.744C64.123 156.726 63.9622 156.682 63.7795 156.611C63.6041 156.529 63.3994 156.416 63.1656 156.273L61.7843 155.472V157.944L60.0741 158.705V149.825L61.7843 149.064V153.024L63.5273 154.059C63.8635 154.262 64.1376 154.408 64.3495 154.497C64.5688 154.584 64.7478 154.628 64.8867 154.63C65.0255 154.624 65.1608 154.592 65.2923 154.534C65.3142 154.524 65.3398 154.513 65.369 154.499C65.3983 154.478 65.4312 154.46 65.4677 154.444L65.4787 156.371C65.4202 156.405 65.3544 156.442 65.2813 156.483C65.2156 156.52 65.1388 156.558 65.0511 156.597ZM63.045 154.55L61.5979 154.438C61.861 154.065 62.0985 153.708 62.3105 153.365C62.5297 153.02 62.7198 152.691 62.8805 152.379C63.0486 152.065 63.1875 151.755 63.2971 151.45C63.4141 151.142 63.5054 150.829 63.5712 150.512L65.391 149.81C65.3106 150.19 65.1863 150.585 65.0182 150.996C64.8501 151.407 64.6528 151.822 64.4263 152.243C64.207 152.661 63.9768 153.067 63.7356 153.463C63.4944 153.85 63.2642 154.213 63.045 154.55ZM67.3623 157.968L68.0968 155.133L67.8557 155.24L65.6631 149.701L67.6254 148.791L68.8861 153.198L70.0811 147.698L71.9556 146.887L69.2479 157.153L67.3623 157.968Z" fill="white"/>
</svg>
